<svg width="34" height="34" viewBox="0 0 34 34" fill="none" xmlns="http://www.w3.org/2000/svg">
<path d="M30.4886 0.924805H3.51268C2.08634 0.924805 0.929199 2.08195 0.929199 3.50829V30.4842C0.929199 31.9105 2.08634 33.0677 3.51268 33.0677H30.4886C31.9149 33.0677 33.0721 31.9105 33.0721 30.4842V3.50829C33.0721 2.08195 31.9149 0.924805 30.4886 0.924805ZM30.4886 30.4962C12.4966 30.4922 3.50063 30.4882 3.50063 30.4842C3.50465 12.4922 3.50866 3.49623 3.51268 3.49623C21.5046 3.50025 30.5006 3.50427 30.5006 3.50829C30.4966 21.5003 30.4926 30.4962 30.4886 30.4962ZM5.69438 12.9744H10.4636V28.3145H5.69438V12.9744ZM8.08099 10.877C9.60375 10.877 10.8453 9.63954 10.8453 8.11275C10.8453 7.74974 10.7738 7.39028 10.6349 7.05491C10.4959 6.71953 10.2923 6.41479 10.0356 6.15811C9.77894 5.90142 9.47421 5.6978 9.13883 5.55888C8.80345 5.41997 8.444 5.34847 8.08099 5.34847C7.71797 5.34847 7.35852 5.41997 7.02314 5.55888C6.68776 5.6978 6.38303 5.90142 6.12634 6.15811C5.86965 6.41479 5.66604 6.71953 5.52712 7.05491C5.3882 7.39028 5.3167 7.74974 5.3167 8.11275C5.31268 9.63954 6.55018 10.877 8.08099 10.877ZM18.218 20.7248C18.218 18.7239 18.5997 16.7873 21.0788 16.7873C23.5216 16.7873 23.5578 19.0735 23.5578 20.8534V28.3145H28.323V19.9011C28.323 15.7708 27.431 12.5927 22.6055 12.5927C20.2872 12.5927 18.7323 13.8663 18.0935 15.0717H18.0292V12.9744H13.4529V28.3145H18.218V20.7248Z" fill="white"/>
</svg>
