<svg width="49" height="48" viewBox="0 0 49 48" fill="none" xmlns="http://www.w3.org/2000/svg">
<path d="M15.4285 43.5013C33.5418 43.5013 43.449 28.4946 43.449 15.4808C43.449 15.0546 43.449 14.6302 43.4202 14.2078C45.3475 12.8137 47.0113 11.0876 48.3335 9.11024C46.5363 9.90704 44.6295 10.4293 42.6771 10.6597C44.7331 9.42905 46.2718 7.49324 47.0067 5.21264C45.0737 6.35985 42.9587 7.16829 40.7533 7.60304C39.2685 6.02419 37.3047 4.97872 35.1659 4.6284C33.027 4.27809 30.8323 4.64247 28.9214 5.66514C27.0105 6.68782 25.4899 8.31178 24.5949 10.2857C23.7 12.2597 23.4805 14.4736 23.9706 16.5848C20.0553 16.3884 16.225 15.3709 12.7284 13.5982C9.23177 11.8256 6.14699 9.33756 3.67427 6.29552C2.41492 8.46351 2.02921 11.03 2.59566 13.4724C3.16212 15.9147 4.63815 18.0494 6.72323 19.4418C5.15593 19.3958 3.62276 18.973 2.25347 18.2091V18.3339C2.25409 20.6076 3.04117 22.8111 4.48121 24.5707C5.92125 26.3302 7.92559 27.5375 10.1543 27.9877C8.70443 28.3832 7.18321 28.441 5.70755 28.1566C6.33709 30.1133 7.56232 31.8243 9.21194 33.0505C10.8616 34.2767 12.8531 34.9568 14.9082 34.9957C12.8663 36.6006 10.5281 37.7873 8.02721 38.4877C5.52633 39.1881 2.91189 39.3886 0.333466 39.0776C4.83713 41.9676 10.0773 43.5006 15.4285 43.4936" fill="white"/>
</svg>
