<svg width="36" height="28" viewBox="0 0 36 28" fill="none" xmlns="http://www.w3.org/2000/svg">
<path d="M36 13.8898C36 13.8014 36 13.7009 35.996 13.5844C35.992 13.259 35.9839 12.8933 35.9759 12.5036C35.9438 11.3826 35.8875 10.2657 35.7991 9.21297C35.6786 7.76253 35.5018 6.55315 35.2607 5.64512C35.0063 4.6975 34.5077 3.83326 33.8146 3.13876C33.1215 2.44427 32.2583 1.94385 31.3112 1.68753C30.1741 1.38217 27.9482 1.19333 24.8143 1.07681C23.3237 1.02056 21.7286 0.984403 20.1335 0.964313C19.575 0.956278 19.0567 0.95226 18.5906 0.948242H17.4094C16.9433 0.95226 16.425 0.956278 15.8665 0.964313C14.2714 0.984403 12.6763 1.02056 11.1857 1.07681C8.05179 1.19735 5.82187 1.38619 4.68884 1.68753C3.74143 1.94322 2.87787 2.44343 2.18469 3.13802C1.4915 3.83261 0.993054 4.69719 0.739286 5.64512C0.494196 6.55315 0.321429 7.76253 0.200893 9.21297C0.1125 10.2657 0.0562499 11.3826 0.0241071 12.5036C0.0120535 12.8933 0.00803565 13.259 0.0040178 13.5844C0.0040178 13.7009 0 13.8014 0 13.8898V14.1148C0 14.2032 -6.14673e-08 14.3036 0.0040178 14.4201C0.00803565 14.7456 0.0160714 15.1112 0.0241071 15.5009C0.0562499 16.6219 0.1125 17.7389 0.200893 18.7915C0.321429 20.242 0.498214 21.4514 0.739286 22.3594C1.25357 24.284 2.76429 25.8027 4.68884 26.317C5.82187 26.6224 8.05179 26.8112 11.1857 26.9277C12.6763 26.984 14.2714 27.0201 15.8665 27.0402C16.425 27.0482 16.9433 27.0523 17.4094 27.0563H18.5906C19.0567 27.0523 19.575 27.0482 20.1335 27.0402C21.7286 27.0201 23.3237 26.984 24.8143 26.9277C27.9482 26.8072 30.1781 26.6183 31.3112 26.317C33.2357 25.8027 34.7464 24.288 35.2607 22.3594C35.5058 21.4514 35.6786 20.242 35.7991 18.7915C35.8875 17.7389 35.9438 16.6219 35.9759 15.5009C35.9879 15.1112 35.992 14.7456 35.996 14.4201C35.996 14.3036 36 14.2032 36 14.1148V13.8898ZM33.1071 14.0987C33.1071 14.1831 33.1071 14.2755 33.1031 14.384C33.0991 14.6973 33.0911 15.0429 33.083 15.4165C33.0549 16.4853 32.9987 17.554 32.9143 18.5465C32.8058 19.8402 32.6531 20.9009 32.4643 21.6121C32.2152 22.5402 31.4839 23.2755 30.5598 23.5206C29.7161 23.7456 27.5906 23.9264 24.7018 24.0349C23.2393 24.0911 21.6643 24.1273 20.0933 24.1474C19.5429 24.1554 19.0326 24.1594 18.5746 24.1594H17.4254L15.9067 24.1474C14.3357 24.1273 12.7647 24.0911 11.2982 24.0349C8.40938 23.9224 6.27991 23.7456 5.44018 23.5206C4.51607 23.2715 3.78482 22.5402 3.53571 21.6121C3.34687 20.9009 3.1942 19.8402 3.08571 18.5465C3.00134 17.554 2.94911 16.4853 2.91696 15.4165C2.90491 15.0429 2.90089 14.6933 2.89688 14.384C2.89688 14.2755 2.89286 14.179 2.89286 14.0987V13.9058C2.89286 13.8215 2.89286 13.729 2.89688 13.6206C2.90089 13.3072 2.90893 12.9616 2.91696 12.588C2.94509 11.5192 3.00134 10.4505 3.08571 9.45806C3.1942 8.16431 3.34687 7.1036 3.53571 6.39244C3.78482 5.46431 4.51607 4.72905 5.44018 4.48396C6.28393 4.25896 8.40938 4.07815 11.2982 3.96967C12.7607 3.91342 14.3357 3.87726 15.9067 3.85717C16.4571 3.84914 16.9674 3.84512 17.4254 3.84512H18.5746L20.0933 3.85717C21.6643 3.87726 23.2353 3.91342 24.7018 3.96967C27.5906 4.08217 29.7201 4.25896 30.5598 4.48396C31.4839 4.73306 32.2152 5.46431 32.4643 6.39244C32.6531 7.1036 32.8058 8.16431 32.9143 9.45806C32.9987 10.4505 33.0509 11.5192 33.083 12.588C33.0951 12.9616 33.0991 13.3112 33.1031 13.6206C33.1031 13.729 33.1071 13.8255 33.1071 13.9058V14.0987ZM14.4241 19.3862L23.7455 13.9621L14.4241 8.61833V19.3862Z" fill="white"/>
</svg>
